HIERARCHY
ROOT Hips
{
	OFFSET 51.818699 -9.624673 84.285599
	CHANNELS 6 Xposition Yposition Zposition Xrotation Yrotation Zrotation
	JOINT spine
	{
		OFFSET 0.000000 -0.342408 5.954376
		CHANNELS 3 Xrotation Yrotation Zrotation
		JOINT spine1
		{
			OFFSET 0.000000 -0.000002 8.856018
			CHANNELS 3 Xrotation Yrotation Zrotation
			JOINT spine2
			{
				OFFSET 0.000000 -0.000001 8.485672
				CHANNELS 3 Xrotation Yrotation Zrotation
				JOINT Neck
				{
					OFFSET 0.000000 -1.038704 21.786301
					CHANNELS 3 Xrotation Yrotation Zrotation
					JOINT Head
					{
						OFFSET 0.000000 -0.000001 6.582199
						CHANNELS 3 Xrotation Yrotation Zrotation
						End Site
						{
							OFFSET 0.000000 5.254357 15.932602
						}
					}
				}
				JOINT RightShoulder
				{
					OFFSET -3.573071 0.497523 9.163864
					CHANNELS 3 Xrotation Yrotation Zrotation
					JOINT RightArm
					{
						OFFSET 0.000000 -0.000002 12.019196
						CHANNELS 3 Xrotation Yrotation Zrotation
						JOINT RightArmRoll
						{
							OFFSET 0.000000 -0.000001 6.067551
							CHANNELS 3 Xrotation Yrotation Zrotation
							JOINT RightForeArm
							{
								OFFSET 0.000000 -0.000003 17.672607
								CHANNELS 3 Xrotation Yrotation Zrotation
								JOINT RightForeArmRoll
								{
									OFFSET 0.000000 -0.000001 6.808731
									CHANNELS 3 Xrotation Yrotation Zrotation
									JOINT RightHand
									{
										OFFSET 0.000000 -0.000003 13.663605
										CHANNELS 3 Xrotation Yrotation Zrotation
										End Site
										{
											OFFSET 0.000000 0.000000 0.100006
										}
									}
								}
							}
						}
					}
				}
				JOINT LeftShoulder
				{
					OFFSET 3.573071 0.497523 9.163864
					CHANNELS 3 Xrotation Yrotation Zrotation
					JOINT LeftArm
					{
						OFFSET 0.000000 -0.000002 12.019196
						CHANNELS 3 Xrotation Yrotation Zrotation
						JOINT LeftArmRoll
						{
							OFFSET 0.000000 -0.000001 6.067551
							CHANNELS 3 Xrotation Yrotation Zrotation
							JOINT LeftForeArm
							{
								OFFSET 0.000000 -0.000003 17.672607
								CHANNELS 3 Xrotation Yrotation Zrotation
								JOINT LeftForeArmRoll
								{
									OFFSET 0.000000 -0.000001 6.808716
									CHANNELS 3 Xrotation Yrotation Zrotation
									JOINT LeftHand
									{
										OFFSET 0.000000 -0.000003 13.663605
										CHANNELS 3 Xrotation Yrotation Zrotation
										End Site
										{
											OFFSET 0.000000 0.000000 0.100006
										}
									}
								}
							}
						}
					}
				}
			}
		}
	}
	JOINT RightUpLeg
	{
		OFFSET -5.277740 0.811858 -0.967796
		CHANNELS 3 Xrotation Yrotation Zrotation
		JOINT RightUpLegRoll
		{
			OFFSET 0.000000 -0.000003 16.021400
			CHANNELS 3 Xrotation Yrotation Zrotation
			JOINT RightLeg
			{
				OFFSET 0.000000 0.000003 -19.840103
				CHANNELS 3 Xrotation Yrotation Zrotation
				JOINT RightLegRoll
				{
					OFFSET 0.000000 -0.000003 19.904999
					CHANNELS 3 Xrotation Yrotation Zrotation
					JOINT RightFoot
					{
						OFFSET 0.000000 -0.000003 16.567497
						CHANNELS 3 Xrotation Yrotation Zrotation
						JOINT RightToeBase
						{
							OFFSET 0.000000 -0.000002 13.849602
							CHANNELS 3 Xrotation Yrotation Zrotation
							End Site
							{
								OFFSET 0.005871 0.773116 6.707275
							}
						}
					}
				}
			}
		}
	}
	JOINT LeftUpLeg
	{
		OFFSET 5.277740 0.811858 -0.967796
		CHANNELS 3 Xrotation Yrotation Zrotation
		JOINT LeftUpLegRoll
		{
			OFFSET 0.000000 -0.000003 16.021500
			CHANNELS 3 Xrotation Yrotation Zrotation
			JOINT LeftLeg
			{
				OFFSET 0.000000 -0.000003 19.840004
				CHANNELS 3 Xrotation Yrotation Zrotation
				JOINT LeftLegRoll
				{
					OFFSET 0.000000 -0.000004 20.089005
					CHANNELS 3 Xrotation Yrotation Zrotation
					JOINT LeftFoot
					{
						OFFSET 0.000000 -0.000003 16.383499
						CHANNELS 3 Xrotation Yrotation Zrotation
						JOINT LeftToeBase
						{
							OFFSET 0.000000 -0.000002 13.849594
							CHANNELS 3 Xrotation Yrotation Zrotation
							End Site
							{
								OFFSET -0.026310 0.773116 6.707275
							}
						}
					}
				}
			}
		}
	}
}
MOTION
Frames: 13
Frame Time: 0.041667
51.674297 -5.703466 84.358490 -9.211080 1.033287 -3.509078 -0.502819 -0.132908 0.061929 2.998263 -0.265716 0.120599 4.643349 -0.264285 0.123108 14.506391 2.960967 -0.560121 1.967320 -5.333771 -0.334002 4.014436 -76.159136 2.388037 -48.501235 -113.039890 -52.706917 0.000001 0.000003 -0.000001 -0.027011 3.640461 -1.990654 -0.000001 0.000017 -3.011609 -5.000144 -7.999947 0.000007 -5.212531 62.294986 6.385208 -27.730020 122.568018 41.455341 0.000002 -0.000003 -0.000001 -0.028042 -3.642560 1.990668 -0.000001 -0.000006 3.011599 -5.000172 7.999927 -0.000000 3.203197 179.544705 3.061950 -179.999991 0.000005 -1.162998 170.994032 -2.809984 -0.536172 -0.000003 0.000003 0.129998 69.612544 6.857375 2.174289 25.456965 -7.355616 0.000009 3.530004 178.432982 -1.075347 -0.000005 -0.000004 -1.164550 -11.130901 2.508108 0.521412 0.000003 -0.000004 -0.189767 71.294102 -6.813373 -2.190287 25.456952 7.355613 0.000000 
51.675602 -5.711155 84.360794 -9.215582 1.034656 -3.504952 -0.501068 -0.133580 0.061929 3.002073 -0.267057 0.120597 4.647160 -0.265624 0.123105 14.493581 2.976583 -0.558555 1.970903 -5.348181 -0.332774 4.015598 -76.143085 2.391348 -48.436112 -113.043743 -52.655520 -0.000001 0.000003 -0.000002 -0.027014 3.640461 -1.990654 -0.000003 0.000017 -3.011609 -5.000143 -7.999947 0.000006 -5.213083 62.299774 6.386280 -27.739029 122.555341 41.451738 0.000001 -0.000004 -0.000001 -0.028038 -3.642560 1.990665 -0.000001 -0.000006 3.011599 -5.000171 7.999928 0.000001 3.198823 179.541713 3.059438 -179.999991 0.000005 -1.162999 170.984005 -2.805954 -0.536037 -0.000003 0.000003 0.129997 69.614237 6.857373 2.174284 25.456957 -7.355616 0.000009 3.537776 178.429990 -1.079504 -0.000005 -0.000004 -1.164550 -11.126222 2.510945 0.521485 0.000003 -0.000004 -0.189768 71.291862 -6.813364 -2.190424 25.456957 7.355613 -0.000000 
51.671997 -5.710705 84.361496 -9.219494 1.036510 -3.500839 -0.499468 -0.134369 0.061928 3.005624 -0.268633 0.120594 4.650710 -0.267197 0.123102 14.480872 2.992257 -0.556931 1.974332 -5.362591 -0.331502 4.014801 -76.126365 2.392643 -48.370317 -113.047335 -52.603911 -0.000001 0.000003 -0.000001 -0.027012 3.640460 -1.990653 -0.000002 0.000017 -3.011609 -5.000141 -7.999947 0.000007 -5.213648 62.304262 6.387331 -27.747930 122.541585 41.448204 0.000002 -0.000003 0.000001 -0.028042 -3.642560 1.990667 -0.000001 -0.000006 3.011599 -5.000171 7.999927 0.000001 3.193061 179.537710 3.056392 -179.999991 0.000005 -1.162999 170.973582 -2.801920 -0.535920 -0.000003 0.000003 0.129998 69.615603 6.857358 2.174297 25.456960 -7.355615 0.000010 3.544670 178.427012 -1.084092 -0.000005 -0.000004 -1.164550 -11.121843 2.513966 0.521587 0.000003 -0.000004 -0.189768 71.289533 -6.813417 -2.190476 25.456955 7.355613 -0.000000 
51.671700 -5.710043 84.359901 -9.222995 1.038701 -3.496738 -0.497961 -0.135240 0.061927 3.009004 -0.270373 0.120591 4.654081 -0.268934 0.123099 14.468263 3.007970 -0.555265 1.977646 -5.377003 -0.330199 4.012653 -76.109262 2.392538 -48.302237 -113.051406 -52.550202 0.000000 0.000003 -0.000001 -0.027013 3.640460 -1.990653 -0.000001 0.000017 -3.011608 -5.000143 -7.999947 0.000007 -5.214236 62.308647 6.388398 -27.755423 122.528553 41.443126 0.000001 -0.000004 0.000000 -0.028039 -3.642560 1.990670 -0.000001 -0.000005 3.011599 -5.000171 7.999927 0.000000 3.186323 179.533722 3.053003 -179.999991 0.000005 -1.162999 170.962872 -2.797883 -0.535815 -0.000003 0.000003 0.129998 69.616676 6.857399 2.174240 25.456960 -7.355615 0.000010 3.550981 178.423037 -1.089045 -0.000004 -0.000004 -1.164550 -11.117664 2.517122 0.521711 0.000003 -0.000004 -0.189769 71.287299 -6.813404 -2.190610 25.456959 7.355613 0.000000 
51.679699 -5.709766 84.360100 -9.226255 1.041100 -3.492638 -0.496507 -0.136158 0.061927 3.012264 -0.272206 0.120587 4.657342 -0.270765 0.123096 14.455662 3.023715 -0.553568 1.980895 -5.391414 -0.328878 4.009723 -76.091873 2.391634 -48.233990 -113.055449 -52.496510 -0.000001 0.000003 -0.000002 -0.027014 3.640460 -1.990653 -0.000003 0.000017 -3.011610 -5.000140 -7.999946 0.000006 -5.214832 62.312936 6.389466 -27.763332 122.514537 41.438645 0.000002 -0.000004 -0.000001 -0.028039 -3.642561 1.990667 -0.000001 -0.000006 3.011599 -5.000171 7.999927 -0.000000 3.179026 179.528722 3.049365 -179.999991 0.000005 -1.162998 170.952012 -2.793859 -0.535719 -0.000003 0.000003 0.129998 69.617721 6.857373 2.174168 25.456959 -7.355614 0.000009 3.556939 178.420046 -1.094112 -0.000005 -0.000004 -1.164550 -11.113791 2.520355 0.521854 0.000002 -0.000004 -0.189770 71.285045 -6.813395 -2.190845 25.456957 7.355613 0.000001 
51.678600 -5.709045 84.358292 -9.229464 1.043539 -3.488533 -0.495071 -0.137088 0.061925 3.015506 -0.274063 0.120584 4.660583 -0.272619 0.123092 14.443057 3.039451 -0.551856 1.984134 -5.405813 -0.327551 4.006628 -76.074483 2.390564 -48.165599 -113.059445 -52.442718 -0.000000 0.000003 -0.000001 -0.027012 3.640460 -1.990653 -0.000002 0.000016 -3.011609 -5.000143 -7.999947 0.000007 -5.215408 62.317123 6.390503 -27.770501 122.501424 41.433201 0.000001 -0.000004 0.000001 -0.028042 -3.642560 1.990668 -0.000001 -0.000006 3.011599 -5.000173 7.999927 -0.000000 3.171588 179.523722 3.045680 -179.999991 0.000005 -1.162999 170.941111 -2.789822 -0.536619 -0.000003 0.000003 0.129999 69.618677 6.857374 2.174211 25.456955 -7.355616 0.000010 3.562819 178.415073 -1.099350 -0.000005 -0.000004 -1.164550 -11.109813 2.523598 0.521993 0.000003 -0.000004 -0.189771 71.282805 -6.813381 -2.190982 25.456959 7.355612 0.000000 
51.678398 -5.710003 84.352898 -9.232789 1.045887 -3.484428 -0.493608 -0.137994 0.061925 3.018806 -0.275873 0.120582 4.663873 -0.274426 0.123089 14.430451 3.055178 -0.550151 1.987407 -5.420226 -0.326232 4.003914 -76.057189 2.389880 -48.097410 -113.063550 -52.389037 0.000001 0.000003 -0.000002 -0.027012 3.640461 -1.990654 -0.000004 0.000017 -3.011609 -5.000143 -7.999947 0.000007 -5.216004 62.321405 6.391572 -27.778586 122.487463 41.428874 0.000003 -0.000004 0.000000 -0.028041 -3.642560 1.990666 -0.000000 -0.000006 3.011601 -5.000171 7.999927 0.000002 3.164429 179.519720 3.042147 -179.999991 0.000005 -1.162998 170.930279 -2.784800 -0.536358 -0.000003 0.000003 0.129998 69.619729 6.857348 2.174239 25.456959 -7.355616 0.000010 3.568866 178.412082 -1.104364 -0.000005 -0.000004 -1.164550 -11.105839 2.526812 0.522129 0.000003 -0.000004 -0.189773 71.280571 -6.813400 -2.191022 25.456959 7.355613 0.000001 
51.675705 -5.720216 84.359489 -9.236408 1.047979 -3.480321 -0.492073 -0.138842 0.061924 3.022226 -0.277565 0.120578 4.667304 -0.276116 0.123087 14.417851 3.070879 -0.548467 1.990754 -5.434636 -0.324931 4.002169 -76.040182 2.390194 -48.031352 -113.067156 -52.337411 0.000001 0.000003 -0.000001 -0.027009 3.640460 -1.990653 -0.000001 0.000017 -3.011610 -5.000144 -7.999947 0.000007 -5.216571 62.325797 6.392622 -27.786289 122.474472 41.424076 0.000002 -0.000004 -0.000000 -0.028039 -3.642560 1.990665 -0.000001 -0.000006 3.011601 -5.000171 7.999927 0.000001 3.157968 179.515717 3.038862 -179.999991 0.000005 -1.162999 170.919637 -2.780766 -0.536244 -0.000003 0.000003 0.129998 69.620897 6.857359 2.174271 25.456959 -7.355614 0.000010 3.575345 178.408106 -1.109242 -0.000005 -0.000004 -1.164550 -11.101661 2.529929 0.522247 0.000003 -0.000004 -0.189773 71.278324 -6.813389 -2.191156 25.456953 7.355613 0.000000 
51.678497 -5.716096 84.358101 -9.240489 1.049684 -3.476195 -0.490429 -0.139596 0.061924 3.025856 -0.279071 0.120577 4.670923 -0.277620 0.123085 14.405146 3.086535 -0.546818 1.994231 -5.449046 -0.323660 4.001976 -76.023646 2.392106 -47.964064 -113.071692 -52.284053 0.000000 0.000003 -0.000001 -0.027013 3.640461 -1.990654 -0.000002 0.000016 -3.011609 -5.000142 -7.999947 0.000007 -5.217135 62.330394 6.393685 -27.795397 122.460743 41.420712 0.000001 -0.000004 -0.000001 -0.028041 -3.642560 1.990666 0.000001 -0.000005 3.011600 -5.000171 7.999927 0.000001 3.152619 179.511742 3.035968 -179.999991 0.000005 -1.162997 170.909351 -2.776734 -0.536112 -0.000003 0.000003 0.129998 69.622277 6.857378 2.174289 25.456957 -7.355617 0.000010 3.582501 178.405129 -1.113709 -0.000005 -0.000004 -1.164550 -11.097183 2.532902 0.522339 0.000003 -0.000004 -0.189774 71.276077 -6.813376 -2.191291 25.456957 7.355613 0.000000 
51.672401 -5.708364 84.358589 -9.245236 1.050845 -3.472068 -0.488623 -0.140221 0.061924 3.029767 -0.280320 0.120576 4.674845 -0.278865 0.123085 14.392242 3.102136 -0.545219 1.997880 -5.463456 -0.322435 4.003931 -76.007882 2.396238 -47.901035 -113.075189 -52.234766 0.000000 0.000003 -0.000001 -0.027012 3.640461 -1.990654 -0.000003 0.000017 -3.011610 -5.000142 -7.999947 0.000008 -5.217723 62.335373 6.394806 -27.804985 122.448203 41.417710 0.000004 -0.000004 -0.000001 -0.028039 -3.642560 1.990668 0.000000 -0.000006 3.011599 -5.000172 7.999927 0.000001 3.148803 179.508750 3.033645 -179.999991 0.000005 -1.162998 170.899488 -2.772705 -0.535958 -0.000003 0.000003 0.129999 69.624073 6.857381 2.174276 25.456959 -7.355616 0.000010 3.590609 178.403148 -1.117630 -0.000005 -0.000004 -1.164550 -11.092299 2.535664 0.522392 0.000003 -0.000003 -0.189774 71.273823 -6.813365 -2.191427 25.456953 7.355613 0.000001 
51.667000 -5.719153 84.358101 -9.250800 1.051322 -3.467925 -0.486626 -0.140683 0.061924 3.034048 -0.281240 0.120578 4.679115 -0.279783 0.123085 14.379240 3.117653 -0.543689 2.001749 -5.477865 -0.321266 4.008582 -75.992978 2.403148 -47.839253 -113.079225 -52.186050 -0.000001 0.000003 -0.000002 -0.027012 3.640461 -1.990654 -0.000004 0.000016 -3.011609 -5.000144 -7.999946 0.000007 -5.218255 62.340673 6.395893 -27.816340 122.435020 41.416744 0.000002 -0.000004 0.000000 -0.028041 -3.642559 1.990665 0.000001 -0.000006 3.011598 -5.000171 7.999927 -0.000001 3.146930 179.506742 3.032061 -179.999991 0.000005 -1.162999 170.890186 -2.769678 -0.535935 -0.000003 0.000003 0.129998 69.626402 6.857369 2.174232 25.456957 -7.355615 0.000010 3.599902 178.402151 -1.120893 -0.000005 -0.000004 -1.164550 -11.086817 2.538164 0.522396 0.000004 -0.000003 -0.189775 71.271596 -6.813382 -2.191467 25.456957 7.355613 0.000000 
51.674198 -5.721225 84.353989 -9.257358 1.050957 -3.463772 -0.484387 -0.140945 0.061924 3.038758 -0.281762 0.120579 4.683836 -0.280304 0.123087 14.366033 3.133068 -0.542238 2.005891 -5.492271 -0.320167 4.016493 -75.979113 2.413413 -47.780315 -113.083043 -52.139571 0.000002 0.000003 -0.000001 -0.027014 3.640461 -1.990653 -0.000002 0.000017 -3.011610 -5.000142 -7.999946 0.000006 -5.218795 62.346370 6.397021 -27.829232 122.422193 41.417280 0.000003 -0.000004 -0.000000 -0.028041 -3.642560 1.990667 0.000001 -0.000005 3.011596 -5.000171 7.999927 0.000002 3.147433 179.506756 3.031407 -179.999991 0.000005 -1.162999 170.881552 -2.766645 -0.535876 -0.000003 0.000003 0.129998 69.629155 6.857375 2.174263 25.456960 -7.355614 0.000011 3.610649 178.402164 -1.123362 -0.000005 -0.000004 -1.164550 -11.080829 2.540336 0.522346 0.000003 -0.000003 -0.189774 71.269261 -6.813402 -2.191614 25.456957 7.355613 0.000000 
51.673195 -5.715923 84.356293 -9.265108 1.049601 -3.459588 -0.481863 -0.140974 0.061926 3.043990 -0.281817 0.120582 4.689066 -0.280357 0.123091 14.352526 3.148383 -0.540883 2.010339 -5.506678 -0.319148 4.028252 -75.966498 2.427651 -47.726305 -113.086103 -52.097408 -0.000000 0.000003 -0.000001 -0.027012 3.640461 -1.990654 -0.000000 0.000017 -3.011609 -5.000142 -7.999947 0.000008 -5.219308 62.352653 6.398171 -27.843276 122.410719 41.418834 0.000002 -0.000004 -0.000001 -0.028042 -3.642560 1.990668 0.000000 -0.000006 3.011600 -5.000172 7.999928 0.000002 3.150716 179.507753 3.031763 -179.999991 0.000005 -1.162998 170.873725 -2.763629 -0.535779 -0.000003 0.000003 0.129998 69.632638 6.857377 2.174246 25.456959 -7.355616 0.000011 3.623114 178.404200 -1.124842 -0.000005 -0.000004 -1.164550 -11.074139 2.542141 0.522232 0.000003 -0.000004 -0.189773 71.267007 -6.813391 -2.191747 25.456952 7.355614 0.000000 
